	The.Incredible.Burt.Wonderstone.2013.R6.HDRip.XViD-26k

 
http://www.imdb.com/title/tt0790628/


Plot:


When a street magician's stunts begins to make their show look stale, superstar magicians Burt Wonderstone
and Anton Marvelton look to salvage on their act - and their friendship - by staging their own daring stunt.



Sources - VIDEO: Chinese 720 RMVB ..... thanks ....
         AUDIO: Chinese 720 RMVB ..... thanks ....


         



Format                                   : AVI
Format/Info                              : Audio Video Interleave
File size                                : 1.37 GiB
Duration                                 : 1h 34mn
Overall bit rate                         : 2 071 Kbps
Writing library                          : VirtualDub build 32839/release

Video
ID                                       : 0
Format                                   : MPEG-4 Visual
Format profile                           : Advanced Simple@L5
Format settings, BVOP                    : 2
Format settings, QPel                    : No
Format settings, GMC                     : No warppoints
Format settings, Matrix                  : Default (H.263)
Muxing mode                              : Packed bitstream
Codec ID                                 : XVID
Codec ID/Hint                            : XviD
Duration                                 : 1h 34mn
Bit rate                                 : 1 933 Kbps
Width                                    : 720 pixels
Height                                   : 304 pixels
Display aspect ratio                     : 2.35:1
Frame rate                               : 23.976 fps
Color space                              : YUV
Chroma subsampling                       : 4:2:0
Bit depth                                : 8 bits
Scan type                                : Progressive
Compression mode                         : Lossy
Bits/(Pixel*Frame)                       : 0.368
Stream size                              : 1.28 GiB (93%)
Writing library                          : XviD 64

Audio
ID                                       : 1
Format                                   : MPEG Audio
Format version                           : Version 1
Format profile                           : Layer 3
Codec ID                                 : 55
Codec ID/Hint                            : MP3
Duration                                 : 1h 34mn
Bit rate mode                            : Constant
Bit rate                                 : 128 Kbps
Channel(s)                               : 2 channels
Sampling rate                            : 44.1 KHz
Compression mode                         : Lossy
Stream size                              : 86.8 MiB (6%)
Alignment                                : Split accross interleaves
Interleave, duration                     : 42 ms (1.00 video frame)







Notes -

Took the Chinese 720 RMVB and made a script to crop and resize then dropped that into
vdub and added a few other lil changes then converted audio to mp3 and remuxed.. enjoy

YES it does ahv HC Chinese subs and a website watermark that didnt blur or crop as would lost
to much pic or lost visability of to much and they dont bother me tbh..



[/code]

Screens: 
http://i.imgur.com/PIkZsnB.jpg 
http://i.imgur.com/pvshFlE.jpg 
http://i.imgur.com/ok3bSGP.jpg 
http://i.imgur.com/tUA4CCC.jpg
